<svg preserveAspectRatio="none" width="100%" height="100%" overflow="visible" style="display: block;" viewBox="0 0 32 32" fill="none" xmlns="http://www.w3.org/2000/svg">
<g id="drive_original">
<path id="Vector" d="M20.8987 19.94L22.048 23.9053L25.0613 27.1507C25.4768 26.9117 25.8218 26.5672 26.0613 26.152L28.8613 21.304C29.104 20.8827 29.2253 20.4107 29.2253 19.94L24.9253 19.1067L20.8987 19.94Z" fill="var(--fill-0, #EA4335)" style="fill:#EA4335;fill:color(display-p3 0.9176 0.2627 0.2078);fill-opacity:1;"/>
<path id="Vector_2" d="M20.1626 4.24424C19.7482 4.00514 19.2783 3.87916 18.7999 3.87891H13.1986C12.7146 3.87891 12.2413 4.01224 11.8359 4.24424L13.0413 8.30691L15.9879 11.4336L15.9986 11.4549L18.9653 8.28957L20.1626 4.24424Z" fill="var(--fill-0, #188038)" style="fill:#188038;fill:color(display-p3 0.0941 0.5020 0.2196);fill-opacity:1;"/>
<path id="Vector_3" d="M11.0988 19.9398L6.80677 18.9531L2.77344 19.9398C2.77344 20.4091 2.89344 20.8785 3.13744 21.3011L5.93744 26.1505C6.18144 26.5731 6.5281 26.9131 6.9361 27.1505L9.9041 24.0918L11.0988 19.9398Z" fill="var(--fill-0, #1967D2)" style="fill:#1967D2;fill:color(display-p3 0.0980 0.4039 0.8235);fill-opacity:1;"/>
<path id="Vector_4" d="M25.0107 11.908L21.1627 5.24133C20.923 4.82664 20.578 4.4826 20.1627 4.244L16 11.4533L20.8987 19.9373H29.224C29.224 19.4667 29.104 18.996 28.8587 18.5733L25.0107 11.908Z" fill="var(--fill-0, #FBBC04)" style="fill:#FBBC04;fill:color(display-p3 0.9843 0.7373 0.0157);fill-opacity:1;"/>
<path id="Vector_5" d="M20.8988 19.9404H11.1015L6.9375 27.1511C7.3455 27.3858 7.8135 27.5164 8.3015 27.5164H23.6962C24.1842 27.5164 24.6535 27.3858 25.0602 27.1511L20.8988 19.9404Z" fill="var(--fill-0, #4285F4)" style="fill:#4285F4;fill:color(display-p3 0.2588 0.5216 0.9569);fill-opacity:1;"/>
<path id="Vector_6" d="M15.9974 11.4531L11.8374 4.24512C11.4234 4.48335 11.0794 4.82641 10.8401 5.23978L3.13744 18.5798C2.89903 18.9934 2.7735 19.4624 2.77344 19.9398H11.0988L15.9974 11.4531Z" fill="var(--fill-0, #34A853)" style="fill:#34A853;fill:color(display-p3 0.2039 0.6588 0.3255);fill-opacity:1;"/>
</g>
</svg>
