<svg preserveAspectRatio="none" width="100%" height="100%" overflow="visible" style="display: block;" viewBox="0 0 32 32" fill="none" xmlns="http://www.w3.org/2000/svg">
<g id="image">
<path id="Vector" d="M29.3608 22.427L25.1875 12.667C24.4275 10.8804 23.2942 9.86702 22.0008 9.80035C20.7208 9.73369 19.4808 10.627 18.5342 12.3337L16.0008 16.8804C15.4675 17.8404 14.7075 18.4137 13.8808 18.4804C13.0408 18.5604 12.2008 18.1204 11.5208 17.2537L11.2275 16.8804C10.2808 15.6937 9.1075 15.1204 7.9075 15.2404C6.7075 15.3604 5.68083 16.187 5.00083 17.5337L2.69417 22.1337C1.8675 23.8004 1.9475 25.7337 2.92083 27.307C3.89417 28.8804 5.5875 29.827 7.44083 29.827H24.4542C26.2408 29.827 27.9075 28.9337 28.8942 27.4404C29.9075 25.947 30.0675 24.067 29.3608 22.427Z" fill="var(--fill-0, #636363)" style="fill:#636363;fill:color(display-p3 0.3882 0.3882 0.3882);fill-opacity:1;"/>
<path id="Vector_2" d="M9.29312 11.1722C11.7821 11.1722 13.7998 9.15448 13.7998 6.66552C13.7998 4.17656 11.7821 2.15885 9.29312 2.15885C6.80416 2.15885 4.78646 4.17656 4.78646 6.66552C4.78646 9.15448 6.80416 11.1722 9.29312 11.1722Z" fill="var(--fill-0, #636363)" style="fill:#636363;fill:color(display-p3 0.3882 0.3882 0.3882);fill-opacity:1;"/>
<g id="Vector_3" opacity="0">
</g>
</g>
</svg>
