<svg preserveAspectRatio="none" width="100%" height="100%" overflow="visible" style="display: block;" viewBox="0 0 32 32" fill="none" xmlns="http://www.w3.org/2000/svg">
<g id="image">
<path id="Vector" d="M28.9079 22.6129L24.7345 12.8662C23.3212 9.55952 20.7212 9.42619 18.9745 12.5729L16.4545 17.1195C15.1745 19.4262 12.7879 19.6262 11.1345 17.5595L10.8412 17.1862C9.1212 15.0262 6.69454 15.2929 5.45454 17.7595L3.1612 22.3595C1.54787 25.5595 3.8812 29.3329 7.45454 29.3329H24.4679C27.9345 29.3329 30.2679 25.7995 28.9079 22.6129Z" stroke="var(--stroke-0, #636363)" style="stroke:#636363;stroke:color(display-p3 0.3882 0.3882 0.3882);stroke-opacity:1;" stroke-width="1.5" stroke-linecap="round" stroke-linejoin="round"/>
<path id="Vector_2" d="M9.29427 10.6667C11.5034 10.6667 13.2943 8.87581 13.2943 6.66667C13.2943 4.45753 11.5034 2.66667 9.29427 2.66667C7.08513 2.66667 5.29427 4.45753 5.29427 6.66667C5.29427 8.87581 7.08513 10.6667 9.29427 10.6667Z" stroke="var(--stroke-0, #636363)" style="stroke:#636363;stroke:color(display-p3 0.3882 0.3882 0.3882);stroke-opacity:1;" stroke-width="1.5" stroke-linecap="round" stroke-linejoin="round"/>
<g id="Vector_3" opacity="0">
</g>
</g>
</svg>
