<svg preserveAspectRatio="none" width="100%" height="100%" overflow="visible" style="display: block;" viewBox="0 0 32 32" fill="none" xmlns="http://www.w3.org/2000/svg">
<g id="youtube_original">
<path id="Vector" fill-rule="evenodd" clip-rule="evenodd" d="M27.8756 8.05726C28.2889 8.4706 28.5876 8.9866 28.7396 9.5506C29.6196 13.0959 29.4169 18.6946 28.7569 22.3759C28.6039 22.9412 28.3056 23.4565 27.8915 23.8705C27.4775 24.2846 26.9622 24.583 26.3969 24.7359C24.3289 25.2999 16.0022 25.2999 16.0022 25.2999C16.0022 25.2999 7.67425 25.2999 5.60625 24.7346C5.04095 24.5818 4.52558 24.2834 4.1115 23.8693C3.69742 23.4553 3.39909 22.9399 3.24625 22.3746C2.36092 18.8466 2.60358 13.2453 3.22892 9.56926C3.38188 9.00402 3.68025 8.48872 4.09431 8.07466C4.50837 7.66059 5.02368 7.36223 5.58892 7.20926C7.65691 6.64526 15.9849 6.62793 15.9849 6.62793C15.9849 6.62793 24.3116 6.62793 26.3809 7.19193C26.9462 7.34526 27.4609 7.6426 27.8742 8.05726" fill="var(--fill-0, #FF0000)" style="fill:#FF0000;fill:color(display-p3 1.0000 0.0000 0.0000);fill-opacity:1;"/>
<path id="Vector_2" fill-rule="evenodd" clip-rule="evenodd" d="M20.2439 15.9623L13.3359 19.9623V11.9609L20.2439 15.9623Z" fill="var(--fill-0, white)" style="fill:white;fill-opacity:1;"/>
</g>
</svg>
