<svg preserveAspectRatio="none" overflow="visible" style="display: block;" width="28" height="28" viewBox="0 0 28 28" fill="none" xmlns="http://www.w3.org/2000/svg">
<g id="corner_up_left_regular">
<path id="Vector" fill-rule="evenodd" clip-rule="evenodd" d="M10.57 4.21867C10.3927 4.3085 9.67633 4.99917 7.5775 7.10383C5.08083 9.6075 4.81133 9.89217 4.7425 10.0998C4.64681 10.358 4.64681 10.642 4.7425 10.9002C4.81133 11.1078 5.08083 11.3925 7.5775 13.8973C10.6657 16.9937 10.5758 16.9178 11.1463 16.8863C11.7612 16.8513 12.18 16.4407 12.2185 15.8363C12.2547 15.2728 12.271 15.295 10.367 13.3817L8.659 11.6667L13.7678 11.669C17.9142 11.6702 18.9093 11.683 19.0517 11.7332C19.3095 11.8253 19.5347 12.0143 19.6805 12.2628L19.81 12.4833L19.8333 16.8933C19.859 21.8353 19.8322 21.4713 20.2078 21.8365C20.405 22.0267 20.7398 22.1667 21 22.1667C21.2777 22.1667 21.5997 22.0267 21.8132 21.812C22.1888 21.4363 22.1713 21.7047 22.1562 16.6542L22.1422 12.2033L22.0243 11.8288C21.8502 11.2762 21.5454 10.7736 21.1358 10.3638C20.7261 9.95398 20.2237 9.64892 19.6712 9.4745L19.2967 9.35667L13.979 9.34383L8.6625 9.331L10.3682 7.61717C12.271 5.705 12.2547 5.72717 12.2185 5.16367C12.2126 4.98302 12.1615 4.80673 12.0698 4.65099C11.978 4.49526 11.8487 4.36505 11.6935 4.27233C11.5068 4.15683 11.4053 4.12883 11.1347 4.116C10.8535 4.10317 10.7672 4.11833 10.57 4.21867Z" fill="#FF6B00"/>
</g>
</svg>
