<svg preserveAspectRatio="none" width="100%" height="100%" overflow="visible" style="display: block;" viewBox="0 0 24 24" fill="none" xmlns="http://www.w3.org/2000/svg">
<g id="list_check_regular">
<path id="Vector" fill-rule="evenodd" clip-rule="evenodd" d="M3.9533 3.61536C3.4583 3.81936 3.1233 4.22636 3.0393 4.72936C2.8793 5.67736 3.5483 6.47836 4.5003 6.47836C5.0393 6.47836 5.4493 6.25736 5.7543 5.80036C6.1613 5.19036 6.0203 4.29936 5.4433 3.84336C5.0293 3.51536 4.4233 3.42236 3.9533 3.61536ZM8.6733 4.06336C8.3103 4.17536 8.0003 4.60636 8.0003 5.00036C8.0003 5.40536 8.3093 5.82636 8.6903 5.93936C8.8693 5.99236 9.5983 6.00036 14.5003 6.00036C19.4023 6.00036 20.1313 5.99236 20.3103 5.93936C20.6883 5.82736 21.0003 5.40236 21.0003 5.00036C21.0003 4.59836 20.6883 4.17336 20.3103 4.06136C20.0103 3.97236 8.9633 3.97436 8.6733 4.06336ZM3.9533 10.6154C3.4583 10.8194 3.1233 11.2264 3.0393 11.7294C2.8793 12.6774 3.5483 13.4784 4.5003 13.4784C5.4533 13.4784 6.1213 12.6744 5.9603 11.7214C5.8423 11.0194 5.2373 10.5224 4.5003 10.5224C4.2563 10.5224 4.1263 10.5444 3.9533 10.6154ZM8.6733 11.0634C8.3103 11.1754 8.0003 11.6064 8.0003 12.0004C8.0003 12.4054 8.3093 12.8264 8.6903 12.9394C8.8693 12.9924 9.5983 13.0004 14.5003 13.0004C19.4023 13.0004 20.1313 12.9924 20.3103 12.9394C20.6883 12.8274 21.0003 12.4024 21.0003 12.0004C21.0003 11.5984 20.6883 11.1734 20.3103 11.0614C20.0103 10.9724 8.9633 10.9744 8.6733 11.0634ZM3.9533 17.6154C3.4583 17.8194 3.1233 18.2264 3.0393 18.7294C2.8793 19.6774 3.5483 20.4784 4.5003 20.4784C5.4533 20.4784 6.1213 19.6744 5.9603 18.7214C5.8423 18.0194 5.2373 17.5224 4.5003 17.5224C4.2563 17.5224 4.1263 17.5444 3.9533 17.6154ZM8.6733 18.0634C8.3103 18.1754 8.0003 18.6064 8.0003 19.0004C8.0003 19.4054 8.3093 19.8264 8.6903 19.9394C8.8693 19.9924 9.5983 20.0004 14.5003 20.0004C19.4023 20.0004 20.1313 19.9924 20.3103 19.9394C20.6883 19.8274 21.0003 19.4024 21.0003 19.0004C21.0003 18.5984 20.6883 18.1734 20.3103 18.0614C20.0103 17.9724 8.9633 17.9744 8.6733 18.0634Z" fill="var(--fill-0, #606060)" style="fill:#606060;fill:color(display-p3 0.3765 0.3765 0.3765);fill-opacity:1;"/>
</g>
</svg>
